<?xml version="1.0" encoding="utf-8"?>
<!-- Generator: Adobe Illustrator 17.0.1, SVG Export Plug-In . SVG Version: 6.00 Build 0)  -->
<!DOCTYPE svg PUBLIC "-//W3C//DTD SVG 1.1//EN" "http://www.w3.org/Graphics/SVG/1.1/DTD/svg11.dtd">
<svg version="1.1" id="Layer_1" xmlns="http://www.w3.org/2000/svg" xmlns:xlink="http://www.w3.org/1999/xlink" x="0px" y="0px"
	 width="1280px" height="800px" viewBox="0 0 1280 800" enable-background="new 0 0 1280 800" xml:space="preserve">
<rect x="601.5" y="44.5" fill="#F4FBFF" stroke="#000000" stroke-miterlimit="10" width="35" height="84"/>
<ellipse fill="#FFFCAA" stroke="#000000" stroke-miterlimit="10" cx="617.6" cy="203.85" rx="62" ry="75.35"/>
<rect x="467.5" y="279.5" fill="#FF1D08" stroke="#000000" stroke-miterlimit="10" width="305" height="171"/>
<g>
	<g>
		<path d="M589.2,179.1c1.935,0,1.935-3,0-3S587.265,179.1,589.2,179.1L589.2,179.1z"/>
	</g>
</g>
<g>
	<g>
		<path d="M648.4,178.3c1.935,0,1.935-3,0-3S646.465,178.3,648.4,178.3L648.4,178.3z"/>
	</g>
</g>
<g>
	<g>
		<path d="M621.2,244.7c1.935,0,1.935-3,0-3S619.265,244.7,621.2,244.7L621.2,244.7z"/>
	</g>
</g>
<line fill="none" stroke="#000000" stroke-miterlimit="10" x1="906.8" y1="226.4" x2="930.8" y2="266.8"/>
<polyline fill="#FFFCAA" stroke="#000000" stroke-miterlimit="10" points="772.5,360 930.8,266.8 906.8,226.4 772.5,307.2 "/>
<line fill="none" stroke="#000000" stroke-miterlimit="10" x1="338.8" y1="226.4" x2="307.6" y2="266.8"/>
<polyline fill="#FFFCAA" stroke="#000000" stroke-miterlimit="10" points="467.5,360 307.6,266.8 338.8,226.4 467.5,307.2 "/>
<rect x="424.5" y="450.5" fill="#800F04" stroke="#000000" stroke-miterlimit="10" width="395" height="158"/>
<line fill="none" stroke="#000000" stroke-miterlimit="10" x1="579.756" y1="144.167" x2="655.045" y2="143.795"/>
<line fill="none" stroke="#000000" stroke-miterlimit="10" x1="568.448" y1="157.926" x2="666" y2="156.762"/>
<rect x="513.5" y="608.5" fill="#FFFCAA" stroke="#000000" stroke-miterlimit="10" width="38" height="100"/>
<rect x="662.5" y="608.5" fill="#FFFCAA" stroke="#000000" stroke-miterlimit="10" width="34" height="100"/>
<line fill="none" stroke="#000000" stroke-miterlimit="10" x1="338.8" y1="226.4" x2="355.2" y2="210.6"/>
<line fill="none" stroke="#000000" stroke-miterlimit="10" x1="355.2" y1="210.6" x2="342.4" y2="203.85"/>
<line fill="none" stroke="#000000" stroke-miterlimit="10" x1="342.4" y1="203.85" x2="285.6" y2="263.4"/>
<line fill="none" stroke="#000000" stroke-miterlimit="10" x1="285.6" y1="263.4" x2="297.6" y2="279.2"/>
<line fill="none" stroke="#000000" stroke-miterlimit="10" x1="297.6" y1="279.2" x2="307.6" y2="266.8"/>
<line fill="none" stroke="#000000" stroke-miterlimit="10" x1="304.867" y1="243.2" x2="243.2" y2="190.6"/>
<line fill="none" stroke="#000000" stroke-miterlimit="10" x1="320.891" y1="226.4" x2="260.8" y2="176.8"/>
<line fill="none" stroke="#000000" stroke-miterlimit="10" x1="260.8" y1="176.8" x2="243.2" y2="169.8"/>
<line fill="none" stroke="#000000" stroke-miterlimit="10" x1="243.5" y1="170" x2="243.5" y2="191"/>
<line fill="none" stroke="#000000" stroke-miterlimit="10" x1="906.5" y1="226" x2="906.5" y2="164"/>
<line fill="none" stroke="#000000" stroke-miterlimit="10" x1="906.5" y1="164" x2="976.8" y2="190.6"/>
<line fill="none" stroke="#000000" stroke-miterlimit="10" x1="976.8" y1="190.6" x2="1038.4" y2="289.8"/>
<line fill="none" stroke="#000000" stroke-miterlimit="10" x1="1038.4" y1="289.8" x2="1032.8" y2="341.8"/>
<line fill="none" stroke="#000000" stroke-miterlimit="10" x1="1033" y1="341.5" x2="986" y2="341.5"/>
<line fill="none" stroke="#000000" stroke-miterlimit="10" x1="986" y1="341.5" x2="930.8" y2="266.8"/>
<rect x="532.5" y="24.5" fill="#FF1D08" stroke="#000000" stroke-miterlimit="10" width="181" height="20"/>
<line fill="none" stroke="#000000" stroke-miterlimit="10" x1="953.5" y1="233.625" x2="976.8" y2="266.8"/>
<line fill="none" stroke="#000000" stroke-miterlimit="10" x1="976.8" y1="266.8" x2="994.5" y2="255.5"/>
<line fill="none" stroke="#000000" stroke-miterlimit="10" x1="994.5" y1="255.5" x2="976.8" y2="226"/>
<line fill="none" stroke="#000000" stroke-miterlimit="10" x1="976.8" y1="226" x2="953.5" y2="233.625"/>
<text transform="matrix(1 0 0 1 944.5 372.5)" font-family="'MyriadPro-Regular'" font-size="12">Schild</text>
<line fill="#FF5023" x1="958.4" y1="360" x2="976.8" y2="299.5"/>
<text transform="matrix(1 0 0 1 191.5 128.5)" font-family="'MyriadPro-Regular'" font-size="12">Schwert</text>
<line fill="#FF311E" x1="211.5" y1="138.5" x2="252" y2="186.5"/>
<text transform="matrix(1 0 0 1 700.5 81.5)" font-family="'MyriadPro-Regular'" font-size="12">Puschel</text>
<line fill="#FF440A" x1="690.5" y1="70.5" x2="673.5" y2="34.5"/>
</svg>
