<?xml version="1.0" encoding="utf-8"?>
<!-- Generator: Adobe Illustrator 17.0.1, SVG Export Plug-In . SVG Version: 6.00 Build 0)  -->
<!DOCTYPE svg PUBLIC "-//W3C//DTD SVG 1.1//EN" "http://www.w3.org/Graphics/SVG/1.1/DTD/svg11.dtd">
<svg version="1.1" id="Layer_1" xmlns="http://www.w3.org/2000/svg" xmlns:xlink="http://www.w3.org/1999/xlink" x="0px" y="0px"
	 width="1280px" height="800px" viewBox="0 0 1280 800" enable-background="new 0 0 1280 800" xml:space="preserve">
<line fill="none" stroke="#000000" stroke-miterlimit="10" x1="850.4" y1="321" x2="849.6" y2="660.2"/>
<line fill="none" stroke="#000000" stroke-miterlimit="10" x1="849.6" y1="660.2" x2="1067.2" y2="534.6"/>
<line fill="none" stroke="#000000" stroke-miterlimit="10" x1="1067.5" y1="535" x2="1067.5" y2="179"/>
<line fill="none" stroke="#000000" stroke-miterlimit="10" x1="1067.5" y1="179" x2="850.4" y2="321"/>
<line fill="none" stroke="#000000" stroke-miterlimit="10" x1="942.669" y1="606.48" x2="942.4" y2="534.6"/>
<line fill="none" stroke="#000000" stroke-miterlimit="10" x1="942.4" y1="534.6" x2="1003.2" y2="502.6"/>
<line fill="none" stroke="#000000" stroke-miterlimit="10" x1="1003.2" y1="502.6" x2="1004.935" y2="570.54"/>
<line fill="none" stroke="#000000" stroke-miterlimit="10" x1="972.8" y1="518.6" x2="977.478" y2="586.388"/>
<line fill="none" stroke="#000000" stroke-miterlimit="10" x1="849.6" y1="660.2" x2="365.2" y2="654.6"/>
<line fill="none" stroke="#000000" stroke-miterlimit="10" x1="379.2" y1="315.4" x2="365.2" y2="654.6"/>
<line fill="none" stroke="#000000" stroke-miterlimit="10" x1="438.4" y1="295.4" x2="828.8" y2="301"/>
<line fill="none" stroke="#000000" stroke-miterlimit="10" x1="828.8" y1="301" x2="991.2" y2="194.6"/>
<line fill="none" stroke="#000000" stroke-miterlimit="10" x1="991.2" y1="194.6" x2="564.8" y2="173"/>
<line fill="none" stroke="#000000" stroke-miterlimit="10" x1="564.8" y1="173" x2="438.4" y2="295.4"/>
<line fill="none" stroke="#000000" stroke-miterlimit="10" x1="564.5" y1="173" x2="564.5" y2="298"/>
<line fill="none" stroke="#000000" stroke-miterlimit="10" x1="494" y1="389.5" x2="687" y2="389.5"/>
<line fill="none" stroke="#000000" stroke-miterlimit="10" x1="686.5" y1="390" x2="686.5" y2="535"/>
<line fill="none" stroke="#000000" stroke-miterlimit="10" x1="686.5" y1="535" x2="590.5" y2="606.48"/>
<line fill="none" stroke="#000000" stroke-miterlimit="10" x1="590.5" y1="606.48" x2="494" y2="545"/>
<line fill="none" stroke="#000000" stroke-miterlimit="10" x1="493.5" y1="545" x2="493.5" y2="390"/>
<line fill="none" stroke="#000000" stroke-miterlimit="10" x1="897.6" y1="357" x2="1031.2" y2="274.6"/>
<line fill="none" stroke="#000000" stroke-miterlimit="10" x1="1031.2" y1="274.6" x2="1034" y2="411.4"/>
<line fill="none" stroke="#000000" stroke-miterlimit="10" x1="1034" y1="411.4" x2="975.139" y2="467.5"/>
<line fill="none" stroke="#000000" stroke-miterlimit="10" x1="975.139" y1="467.5" x2="897.6" y2="455.4"/>
<line fill="none" stroke="#000000" stroke-miterlimit="10" x1="897.6" y1="455.4" x2="897.5" y2="357"/>
<polyline fill="none" stroke="#000000" stroke-miterlimit="10" points="379.3,315.6 329.6,367.5 801,367.5 850.4,321 379.2,315.4 
	"/>
<polyline fill="none" stroke="#000000" stroke-miterlimit="10" points="850.4,321 888.8,362.6 1096,218.6 1067.3,179.1 556.8,147.5 
	476.8,164.2 309.6,329 379.2,315.5 556.8,147.45 "/>
<line fill="none" stroke="#000000" stroke-miterlimit="10" x1="309.6" y1="329" x2="329.6" y2="367.5"/>
<line fill="none" stroke="#000000" stroke-miterlimit="10" x1="801" y1="367.5" x2="888.8" y2="362.6"/>
<text transform="matrix(1 0 0 1 967.2002 617)" font-family="'MyriadPro-Regular'" font-size="12">Tor</text>
<text transform="matrix(1 0 0 1 742.4001 570.54)" font-family="'MyriadPro-Regular'" font-size="12">Flaggen</text>
<text transform="matrix(1 0 0 1 698.4004 74.6001)" font-family="'MyriadPro-Regular'" font-size="12">Hof</text>
<text transform="matrix(1 0 0 1 293.5998 194.6)" font-family="'MyriadPro-Regular'" font-size="12">Marquisen</text>
<line fill="#E91400" x1="791.2" y1="561.8" x2="936.369" y2="411.4"/>
<line fill="#E91400" x1="730.4" y1="561.8" x2="625.6" y2="534.6"/>
<line fill="#E91400" x1="708.8" y1="88.2" x2="695.2" y2="255.025"/>
<line fill="#E91400" x1="351.2" y1="205" x2="406.4" y2="255.025"/>
</svg>
