<?xml version="1.0" encoding="utf-8"?>
<!-- Generator: Adobe Illustrator 17.0.1, SVG Export Plug-In . SVG Version: 6.00 Build 0)  -->
<!DOCTYPE svg PUBLIC "-//W3C//DTD SVG 1.1//EN" "http://www.w3.org/Graphics/SVG/1.1/DTD/svg11.dtd">
<svg version="1.1" id="Layer_1" xmlns="http://www.w3.org/2000/svg" xmlns:xlink="http://www.w3.org/1999/xlink" x="0px" y="0px"
	 width="1280px" height="800px" viewBox="0 0 1280 800" enable-background="new 0 0 1280 800" xml:space="preserve">
<circle fill="#75A8FF" stroke="#000000" stroke-miterlimit="10" cx="652" cy="404.6" r="325"/>
<line fill="none" stroke="#000000" stroke-miterlimit="10" x1="202" y1="774.5" x2="1119" y2="774.5"/>
<text transform="matrix(1 0 0 1 959.2004 764.9996)" font-family="'MyriadPro-Regular'" font-size="12">Boden (des Teil hovert)</text>
<rect x="503.5" y="301.5" fill="#587EBF" stroke="#000000" stroke-miterlimit="10" width="295" height="27"/>
<rect x="611.5" y="236.5" fill="#9FB7FF" stroke="#000000" stroke-miterlimit="10" width="73" height="65"/>
<line fill="none" stroke="#000000" stroke-miterlimit="10" x1="647.5" y1="237" x2="647.5" y2="302"/>
<rect x="503.5" y="277.5" fill="none" stroke="#000000" stroke-miterlimit="10" width="295" height="24"/>
<line fill="none" stroke="#000000" stroke-miterlimit="10" x1="523.5" y1="278" x2="523.5" y2="302"/>
<line fill="none" stroke="#000000" stroke-miterlimit="10" x1="552.5" y1="278" x2="552.5" y2="302"/>
<line fill="none" stroke="#000000" stroke-miterlimit="10" x1="577.6" y1="277.5" x2="578.4" y2="302"/>
<line fill="none" stroke="#000000" stroke-miterlimit="10" x1="599.5" y1="278" x2="599.5" y2="302"/>
<line fill="none" stroke="#000000" stroke-miterlimit="10" x1="621.5" y1="278" x2="621.5" y2="302"/>
<line fill="none" stroke="#000000" stroke-miterlimit="10" x1="635.5" y1="278" x2="635.5" y2="302"/>
<line fill="none" stroke="#000000" stroke-miterlimit="10" x1="660.5" y1="278" x2="660.5" y2="302"/>
<line fill="none" stroke="#000000" stroke-miterlimit="10" x1="676.8" y1="277.5" x2="676" y2="301.5"/>
<line fill="none" stroke="#000000" stroke-miterlimit="10" x1="693.5" y1="278" x2="693.5" y2="302"/>
<line fill="none" stroke="#000000" stroke-miterlimit="10" x1="713.5" y1="278" x2="713.5" y2="302"/>
<line fill="none" stroke="#000000" stroke-miterlimit="10" x1="730.5" y1="278" x2="730.5" y2="302"/>
<line fill="none" stroke="#000000" stroke-miterlimit="10" x1="748.5" y1="278" x2="748.5" y2="302"/>
<line fill="none" stroke="#000000" stroke-miterlimit="10" x1="767.2" y1="277.5" x2="765.6" y2="301.5"/>
<line fill="none" stroke="#000000" stroke-miterlimit="10" x1="784.8" y1="278" x2="784" y2="301.5"/>
<text transform="matrix(1 0 0 1 708.7998 343.3999)" font-family="'MyriadPro-Regular'" font-size="12">Balkon</text>
<path fill="#587EBF" stroke="#000000" stroke-miterlimit="10" d="M692.5,657v71.5h-71V656"/>
<rect x="635.5" y="707.5" fill="#FFFFFF" stroke="#000000" stroke-miterlimit="10" width="39" height="67"/>
<rect x="639.5" y="669.5" fill="#FFFFFF" stroke="#000000" stroke-miterlimit="10" width="28" height="38"/>
<line fill="none" stroke="#000000" stroke-miterlimit="10" x1="635" y1="721.5" x2="674" y2="721.5"/>
<line fill="none" stroke="#000000" stroke-miterlimit="10" x1="635" y1="735.5" x2="674" y2="735.5"/>
<line fill="none" stroke="#000000" stroke-miterlimit="10" x1="635" y1="749.5" x2="674" y2="749.5"/>
<line fill="none" stroke="#000000" stroke-miterlimit="10" x1="635" y1="765.5" x2="674" y2="765.5"/>
<line fill="none" stroke="#000000" stroke-miterlimit="10" x1="533.975" y1="707.5" x2="497.6" y2="774.5"/>
<line fill="none" stroke="#000000" stroke-miterlimit="10" x1="770.028" y1="707.5" x2="805.6" y2="774.5"/>
<line fill="none" stroke="#000000" stroke-miterlimit="10" x1="621" y1="656.5" x2="693" y2="656.5"/>
<line fill="none" stroke="#000000" stroke-miterlimit="10" x1="651.5" y1="670" x2="651.5" y2="708"/>
<line fill="none" stroke="#000000" stroke-miterlimit="10" x1="544.769" y1="711.49" x2="512" y2="774.5"/>
<line fill="none" stroke="#000000" stroke-miterlimit="10" x1="759.231" y1="711.49" x2="795.2" y2="774.5"/>
<text transform="matrix(1 0 0 1 805.6 741)" font-family="'MyriadPro-Regular'" font-size="12">Aufgänge (Treppe (alle 90°)</text>
<text transform="matrix(1 0 0 1 654.5 644.2)" font-family="'MyriadPro-Regular'" font-size="12">Eingang</text>
<text transform="matrix(1 0 0 1 539.7 681.8002)" font-family="'MyriadPro-Regular'" font-size="12">Einbuchtung</text>
<line fill="#ED1C24" x1="581.6" y1="689" x2="621.5" y2="692.5"/>
<line fill="#ED1C24" x1="676.8" y1="649.8" x2="667.5" y2="675.4"/>
<g>
	<g>
		<polygon fill="#FFFBC5" points="327.683,425.822 335.948,480.632 968.009,480.812 976.205,427.414 		"/>
	</g>
	<g>
		<polygon fill="none" stroke="#000000" stroke-miterlimit="10" points="327.683,425.822 335.948,480.632 968.009,480.812 
			976.205,427.414 		"/>
	</g>
</g>
</svg>
